<svg width="2540" height="570" viewBox="0 0 2540 570" fill="none" xmlns="http://www.w3.org/2000/svg">
<path d="M818.922 472.546L758.744 374.626H732.953V472.546H678.245V221.266H780.627C801.728 221.266 819.704 224.746 834.553 231.706C849.402 238.426 860.474 247.666 867.768 259.426C875.323 270.946 879.1 283.906 879.1 298.306C879.1 314.866 873.89 329.866 863.47 343.306C853.049 356.506 837.549 365.626 816.968 370.666L882.227 472.546H818.922ZM732.953 336.826H778.673C793.522 336.826 804.594 333.586 811.888 327.106C819.183 320.386 822.83 311.146 822.83 299.386C822.83 287.866 819.183 278.986 811.888 272.746C804.594 266.266 793.522 263.026 778.673 263.026H732.953V336.826ZM1129.83 368.506C1129.83 375.706 1129.31 382.186 1128.27 387.946H970.003C971.306 402.346 976.776 413.626 986.415 421.786C996.054 429.946 1007.91 434.026 1021.98 434.026C1042.3 434.026 1056.75 425.986 1065.35 409.906H1124.36C1118.11 429.106 1106.13 444.946 1088.41 457.426C1070.69 469.666 1048.94 475.786 1023.15 475.786C1002.31 475.786 983.55 471.586 966.877 463.186C950.465 454.546 937.569 442.426 928.191 426.826C919.073 411.226 914.514 393.226 914.514 372.826C914.514 352.186 919.073 334.066 928.191 318.466C937.309 302.866 950.074 290.866 966.486 282.466C982.899 274.066 1001.79 269.866 1023.15 269.866C1043.73 269.866 1062.09 273.946 1078.25 282.106C1094.66 290.266 1107.3 301.906 1116.16 317.026C1125.27 331.906 1129.83 349.066 1129.83 368.506ZM1073.17 354.106C1072.91 341.146 1067.83 330.826 1057.93 323.146C1048.03 315.226 1035.91 311.266 1021.58 311.266C1008.04 311.266 996.576 315.106 987.197 322.786C978.079 330.226 972.478 340.666 970.394 354.106H1073.17ZM1155.69 372.106C1155.69 351.946 1159.99 334.066 1168.58 318.466C1177.44 302.866 1189.3 290.866 1204.14 282.466C1219.25 274.066 1236.06 269.866 1254.55 269.866C1270.71 269.866 1284.77 272.866 1296.76 278.866C1309 284.866 1318.77 292.426 1326.06 301.546V273.106H1381.16V472.546H1326.06V443.386C1319.03 452.746 1309.26 460.546 1296.76 466.786C1284.51 472.786 1270.31 475.786 1254.16 475.786C1235.93 475.786 1219.25 471.466 1204.14 462.826C1189.3 454.186 1177.44 442.066 1168.58 426.466C1159.99 410.626 1155.69 392.506 1155.69 372.106ZM1326.06 372.826C1326.06 360.586 1323.46 350.146 1318.25 341.506C1313.04 332.626 1306.01 325.906 1297.15 321.346C1288.29 316.546 1278.78 314.146 1268.62 314.146C1258.46 314.146 1249.08 316.426 1240.49 320.986C1231.89 325.546 1224.86 332.266 1219.38 341.146C1214.17 349.786 1211.57 360.106 1211.57 372.106C1211.57 384.106 1214.17 394.666 1219.38 403.786C1224.86 412.666 1231.89 419.506 1240.49 424.306C1249.34 429.106 1258.72 431.506 1268.62 431.506C1278.78 431.506 1288.29 429.226 1297.15 424.666C1306.01 419.866 1313.04 413.146 1318.25 404.506C1323.46 395.626 1326.06 385.066 1326.06 372.826ZM1489.31 206.146V472.546H1434.6V206.146H1489.31ZM1800.59 220.906V241.786H1724.78V472.546H1697.43V241.786H1621.23V220.906H1800.59ZM1871.14 310.906C1877.14 298.666 1886.25 289.186 1898.5 282.466C1911 275.746 1926.24 272.386 1944.22 272.386V298.666H1936.79C1916.99 298.666 1901.1 303.586 1889.12 313.426C1877.14 323.266 1871.14 339.706 1871.14 362.746V472.546H1843.79V275.986H1871.14V310.906ZM2170.19 275.986V472.546H2142.84V437.986C2136.59 450.226 2126.95 459.586 2113.92 466.066C2100.89 472.546 2086.31 475.786 2070.15 475.786C2044.62 475.786 2023.78 468.586 2007.63 454.186C1991.48 439.546 1983.4 418.426 1983.4 390.826V275.986H2010.37V387.946C2010.37 409.306 2016.1 425.626 2027.56 436.906C2039.28 448.186 2055.17 453.826 2075.23 453.826C2095.81 453.826 2112.23 447.826 2124.47 435.826C2136.72 423.826 2142.84 406.186 2142.84 382.906V275.986H2170.19ZM2306.11 475.426C2281.63 475.426 2261.57 470.266 2245.94 459.946C2230.56 449.386 2221.97 435.106 2220.14 417.106H2248.28C2249.58 428.146 2255.18 437.146 2265.08 444.106C2275.24 450.826 2288.79 454.186 2305.72 454.186C2320.57 454.186 2332.16 450.946 2340.5 444.466C2349.1 437.986 2353.4 429.946 2353.4 420.346C2353.4 413.626 2351.05 408.106 2346.36 403.786C2341.67 399.466 2335.68 396.106 2328.39 393.706C2321.35 391.066 2311.71 388.306 2299.47 385.426C2283.58 381.586 2270.68 377.746 2260.78 373.906C2250.89 370.066 2242.42 364.426 2235.38 356.986C2228.61 349.306 2225.22 339.106 2225.22 326.386C2225.22 316.786 2228.35 307.906 2234.6 299.746C2240.86 291.586 2249.71 285.106 2261.18 280.306C2272.64 275.506 2285.66 273.106 2300.25 273.106C2323.18 273.106 2341.67 278.506 2355.74 289.306C2369.81 299.866 2377.36 314.506 2378.41 333.226H2351.05C2350.27 321.706 2345.32 312.466 2336.2 305.506C2327.35 298.306 2315.1 294.706 2299.47 294.706C2285.66 294.706 2274.46 297.706 2265.86 303.706C2257.27 309.706 2252.97 317.146 2252.97 326.026C2252.97 333.706 2255.44 340.066 2260.39 345.106C2265.6 349.906 2271.99 353.746 2279.54 356.626C2287.1 359.266 2297.26 362.266 2310.02 365.626C2325.39 369.466 2337.64 373.186 2346.75 376.786C2355.87 380.386 2363.69 385.666 2370.2 392.626C2376.71 399.586 2380.1 408.826 2380.36 420.346C2380.36 430.906 2377.23 440.386 2370.98 448.786C2364.73 456.946 2356 463.426 2344.8 468.226C2333.6 473.026 2320.7 475.426 2306.11 475.426ZM2467.4 297.226V419.266C2467.4 431.266 2469.88 439.546 2474.83 444.106C2479.78 448.666 2488.51 450.946 2501.01 450.946H2526.02V472.546H2496.71C2477.43 472.546 2463.11 468.466 2453.73 460.306C2444.35 451.906 2439.66 438.226 2439.66 419.266V297.226H2409.96V275.986H2439.66V226.666H2467.4V275.986H2526.02V297.226H2467.4Z" fill="white"/>
<path d="M456.712 212.398H537.308L268.654 0L0 212.398H80.5962L268.654 63.4834L456.712 212.398ZM134.327 42.7156V0H53.7308V106.199L134.327 42.7156Z" fill="white"/>
<path d="M268.654 212.4C183.58 212.4 113.975 272.933 113.975 346.919C113.975 420.904 183.58 481.437 268.654 481.437C353.728 481.437 423.334 420.904 423.334 346.919C423.334 272.933 353.728 212.4 268.654 212.4ZM268.654 454.534C200.441 454.534 144.911 406.241 144.911 346.919C144.911 287.596 200.441 239.304 268.654 239.304C336.868 239.304 392.398 287.596 392.398 346.919C392.398 406.241 336.868 454.534 268.654 454.534ZM339.653 287.461L237.718 376.109L197.656 341.403L175.846 360.37L237.718 414.178L361.462 306.563L339.653 287.461Z" fill="#217BF4"/>
</svg>
